<svg xmlns="http://www.w3.org/2000/svg" width="1387" height="756" viewBox="0 0 1387 756">
<g>
<path d="M 673.27 499.25 C655.59,518.33 654.09,519.31 649.70,514.67 C648.49,513.38 645.14,509.84 642.25,506.80 C639.36,503.75 637.00,500.98 637.00,500.62 C637.00,500.27 633.96,496.95 630.25,493.23 C621.87,484.84 609.02,470.43 608.94,469.32 C608.90,468.87 606.83,466.70 604.33,464.50 C597.44,458.44 588.50,448.91 588.50,447.63 C588.50,446.87 590.59,446.61 594.87,446.84 C603.75,447.30 617.90,445.18 621.21,442.88 C622.70,441.85 624.35,441.00 624.88,441.00 C625.41,441.00 627.12,439.94 628.67,438.64 C630.23,437.34 632.47,435.97 633.65,435.60 C636.75,434.63 656.73,414.30 659.79,409.00 C663.37,402.80 666.43,398.67 673.47,390.52 C676.79,386.68 680.46,382.41 681.63,381.02 C691.65,369.13 729.44,325.16 737.49,316.00 C752.55,298.88 774.19,273.87 785.50,260.50 C791.00,254.00 803.60,239.36 813.50,227.97 C823.40,216.58 835.10,203.07 839.50,197.95 C843.90,192.83 851.10,184.52 855.50,179.49 C859.90,174.45 869.35,163.43 876.50,155.00 C903.70,122.91 907.28,118.91 908.51,119.20 C909.21,119.37 919.39,128.32 931.14,139.10 C942.89,149.88 954.19,160.16 956.25,161.95 C958.31,163.74 960.00,165.59 960.00,166.06 C960.00,166.52 957.30,169.96 954.01,173.70 C950.72,177.44 934.02,196.93 916.91,217.00 C899.79,237.07 878.30,262.22 869.14,272.88 C859.99,283.55 849.20,296.15 845.17,300.88 C841.14,305.62 835.52,312.24 832.67,315.59 C829.83,318.93 819.40,331.06 809.50,342.53 C799.60,354.01 778.76,378.27 763.18,396.45 C747.61,414.63 729.98,435.12 724.00,442.00 C718.03,448.88 707.87,460.58 701.43,468.00 C694.98,475.42 682.31,489.49 673.27,499.25 ZM 719.50 638.13 C705.95,640.55 671.36,641.54 655.87,639.95 C628.83,637.17 591.72,626.55 573.63,616.42 C568.32,613.45 560.00,605.87 560.00,604.01 C560.00,603.23 561.00,603.06 562.99,603.50 C565.61,604.07 566.12,603.81 567.03,601.42 C567.60,599.92 571.32,595.36 575.28,591.28 C579.25,587.20 583.11,582.89 583.86,581.68 C585.03,579.80 594.93,571.77 598.79,569.57 C600.33,568.69 614.94,571.20 627.50,574.50 C647.29,579.70 660.21,581.36 681.50,581.43 C703.27,581.51 712.39,580.33 731.50,575.00 C793.82,557.60 844.32,509.23 864.89,447.25 C876.69,411.68 876.40,364.61 864.14,328.90 C863.12,325.93 862.56,322.74 862.89,321.81 C863.23,320.88 865.57,317.73 868.09,314.81 C870.62,311.89 879.10,301.85 886.95,292.50 C894.80,283.15 901.78,275.37 902.47,275.20 C903.15,275.04 904.39,275.94 905.21,277.20 C906.85,279.72 913.75,295.00 915.04,299.00 C915.49,300.38 917.02,304.64 918.45,308.47 C922.49,319.28 927.75,340.14 930.18,355.00 C931.96,365.79 932.40,372.61 932.42,389.00 C932.44,422.29 928.18,445.85 916.33,478.00 C893.15,540.89 839.81,595.93 777.31,621.43 C755.40,630.37 743.23,633.89 719.50,638.13 Z" fill="rgb(11,184,244)"/>
<path d="M 628.32 574.72 C628.05,574.65 627.78,574.58 627.50,574.50 C614.94,571.20 600.33,568.69 598.79,569.57 C594.93,571.77 585.03,579.80 583.86,581.68 C583.11,582.89 579.25,587.20 575.28,591.28 C571.32,595.36 567.60,599.92 567.03,601.42 C566.12,603.81 565.61,604.07 562.99,603.50 C561.00,603.06 560.00,603.23 560.00,604.01 C560.00,605.87 568.32,613.45 573.63,616.42 C576.38,617.96 579.56,619.51 583.09,621.04 C569.58,615.59 565.42,613.43 551.39,604.97 C525.26,589.22 502.44,569.40 484.07,546.50 C479.88,541.28 478.84,539.56 481.08,541.55 C485.31,545.33 492.25,550.00 493.64,550.00 C494.21,550.00 495.82,548.76 497.23,547.25 C498.64,545.74 501.69,543.20 504.00,541.61 C506.31,540.03 509.78,536.53 511.71,533.84 C513.64,531.15 517.20,527.80 519.61,526.38 C522.02,524.97 524.05,523.29 524.12,522.65 C524.18,522.02 524.34,521.05 524.46,520.50 C524.59,519.95 524.76,518.94 524.85,518.25 C524.93,517.56 526.12,517.00 527.50,517.00 C530.33,517.00 530.62,515.63 528.55,512.00 C526.26,507.98 523.95,502.72 524.31,502.36 C524.50,502.17 527.77,505.90 531.57,510.64 C547.17,530.05 569.50,548.22 592.26,560.00 C604.83,566.51 616.45,571.32 628.32,574.72 ZM 673.27 499.25 C679.21,492.84 686.71,484.57 692.99,477.55 C687.51,483.84 681.80,490.41 678.26,494.50 C673.02,500.55 665.63,508.76 661.84,512.75 C658.06,516.74 654.54,520.00 654.04,520.00 C653.53,520.00 637.95,503.91 619.39,484.25 C600.84,464.59 582.03,444.68 577.58,440.02 C573.14,435.35 571.08,432.91 573.00,434.58 C579.14,439.94 588.87,443.00 599.74,443.00 C609.27,443.00 616.94,441.42 622.50,438.32 C624.70,437.10 627.99,435.33 629.82,434.40 C634.69,431.92 654.00,413.14 654.00,410.89 C654.00,409.45 653.22,408.96 650.75,408.85 L 647.50 408.70 L 650.50 408.31 C652.15,408.09 654.67,407.46 656.10,406.90 C658.30,406.04 672.25,391.91 681.18,381.50 C681.65,380.95 683.20,379.14 685.50,376.45 C683.96,378.26 682.65,379.81 681.63,381.02 C680.46,382.41 676.79,386.68 673.47,390.52 C666.43,398.67 663.37,402.80 659.79,409.00 C656.73,414.30 636.75,434.63 633.65,435.60 C632.47,435.97 630.23,437.34 628.67,438.64 C627.12,439.94 625.41,441.00 624.88,441.00 C624.35,441.00 622.70,441.85 621.21,442.88 C617.90,445.18 603.75,447.30 594.87,446.84 C590.59,446.61 588.50,446.87 588.50,447.63 C588.50,448.91 597.44,458.44 604.33,464.50 C606.83,466.70 608.90,468.87 608.94,469.32 C609.02,470.43 621.87,484.84 630.25,493.23 C633.96,496.95 637.00,500.27 637.00,500.62 C637.00,500.98 639.36,503.75 642.25,506.80 C645.14,509.84 648.49,513.38 649.70,514.67 C654.09,519.31 655.59,518.33 673.27,499.25 ZM 610.06 630.56 C624.33,634.71 639.73,638.04 653.04,639.63 C639.29,638.01 624.65,634.91 610.06,630.56 ZM 649.66 579.29 C659.51,580.72 669.94,581.40 681.50,581.43 C669.04,581.39 659.45,580.81 649.66,579.29 ZM 705.69 352.85 C717.66,338.86 731.95,322.30 737.49,316.00 C732.94,321.18 718.87,337.50 705.69,352.85 ZM 656.48 640.01 C663.91,640.72 675.34,640.87 686.75,640.59 C675.27,640.88 663.80,640.72 656.48,640.01 ZM 737.10 426.83 C744.77,417.92 754.31,406.80 763.18,396.45 C752.50,408.92 744.38,418.38 737.10,426.83 Z" fill="rgb(134,168,148)"/>
<path d="M 566.25 543.64 C553.14,533.88 541.10,522.49 531.57,510.64 C527.77,505.90 524.50,502.17 524.31,502.36 C523.95,502.72 526.26,507.98 528.55,512.00 C530.62,515.63 530.33,517.00 527.50,517.00 C526.12,517.00 524.93,517.56 524.85,518.25 C524.76,518.94 524.59,519.95 524.46,520.50 C524.34,521.05 524.18,522.02 524.12,522.65 C524.05,523.29 522.02,524.97 519.61,526.38 C517.20,527.80 513.64,531.15 511.71,533.84 C509.78,536.53 506.31,540.03 504.00,541.61 C501.69,543.20 498.64,545.74 497.23,547.25 C495.82,548.76 494.21,550.00 493.64,550.00 C492.25,550.00 485.31,545.33 481.08,541.55 C479.17,539.86 479.64,540.85 482.42,544.41 C480.13,541.56 478.33,539.19 477.50,537.85 C476.95,536.96 472.75,530.70 468.16,523.94 C459.92,511.78 451.18,495.04 444.98,479.50 C433.56,450.87 428.00,420.32 428.00,386.13 C428.00,343.15 436.21,307.88 454.80,271.00 C465.42,249.92 474.80,236.21 492.08,216.47 C535.69,166.65 596.66,136.69 664.00,131.97 C705.48,129.07 750.84,137.99 786.50,156.07 C800.14,162.98 819.72,175.01 820.51,176.95 C820.83,177.75 820.28,179.40 819.30,180.61 C811.78,189.88 787.77,217.94 785.81,219.75 L 783.38 221.99 L 778.94 219.19 C760.39,207.49 739.57,198.95 719.00,194.63 C693.59,189.29 660.01,189.83 634.48,196.00 C581.53,208.81 534.88,246.08 509.05,296.24 C501.58,310.74 497.49,321.31 493.57,336.22 C488.67,354.86 487.60,363.96 487.60,387.00 C487.59,409.79 488.42,416.72 493.63,437.50 C503.85,478.28 530.88,517.17 566.25,543.64 ZM 656.26 406.82 C656.20,406.86 656.15,406.88 656.10,406.90 C654.67,407.46 652.15,408.09 650.50,408.31 L 647.50 408.70 L 650.75 408.85 C653.22,408.96 654.00,409.45 654.00,410.89 C654.00,413.14 634.69,431.92 629.82,434.40 C627.99,435.33 624.70,437.10 622.50,438.32 C616.94,441.42 609.27,443.00 599.74,443.00 C588.87,443.00 579.14,439.94 573.00,434.58 C571.08,432.91 573.14,435.35 577.58,440.02 C582.03,444.68 600.84,464.59 619.39,484.25 C619.87,484.75 620.34,485.25 620.80,485.74 C599.30,463.18 573.81,436.19 565.53,427.00 C555.57,415.96 536.93,395.92 528.26,386.93 C523.72,382.22 520.00,377.92 520.00,377.37 C520.00,377.35 520.00,377.32 520.00,377.29 C520.00,377.24 520.00,377.20 520.00,377.15 C520.03,376.08 521.11,375.05 546.35,350.25 C558.81,338.01 569.33,328.00 569.75,328.00 C570.16,328.01 583.33,341.62 599.00,358.25 C645.59,407.69 645.90,408.00 650.32,408.00 C652.17,408.00 654.69,407.49 656.26,406.82 ZM 651.84 639.49 C638.87,637.89 625.14,634.98 611.42,630.96 C624.87,634.80 639.26,637.90 651.84,639.49 ZM 498.81 563.23 C509.99,574.82 522.41,585.42 535.89,594.88 C522.26,585.32 509.68,574.60 498.81,563.23 ZM 678.36 384.73 C679.34,383.62 680.29,382.54 681.18,381.50 C681.65,380.95 683.20,379.14 685.50,376.46 C683.20,379.14 681.65,380.95 681.18,381.50 C680.28,382.54 679.34,383.63 678.36,384.73 ZM 653.78 519.82 C653.91,519.93 654.00,519.99 654.03,520.00 C654.03,520.00 654.02,520.00 654.02,520.00 C653.99,520.00 653.91,519.94 653.78,519.82 Z" fill="rgb(248,140,7)"/>
<path d="M 0.00 378.00 L 0.00 0.00 L 693.50 0.00 L 1387.00 0.00 L 1387.00 378.00 L 1387.00 756.00 L 693.50 756.00 L 0.00 756.00 L 0.00 378.00 ZM 719.50 638.13 C743.23,633.89 755.40,630.37 777.31,621.43 C839.81,595.93 893.15,540.89 916.33,478.00 C928.18,445.85 932.44,422.29 932.42,389.00 C932.40,372.61 931.96,365.79 930.18,355.00 C927.75,340.14 922.49,319.28 918.45,308.47 C917.02,304.64 915.49,300.38 915.04,299.00 C913.75,295.00 906.85,279.72 905.21,277.20 C904.39,275.94 903.15,275.04 902.47,275.20 C901.78,275.37 894.80,283.15 886.95,292.50 C879.10,301.85 870.62,311.89 868.09,314.81 C865.57,317.73 863.23,320.88 862.89,321.81 C862.56,322.74 863.12,325.93 864.14,328.90 C876.40,364.61 876.69,411.68 864.89,447.25 C844.32,509.23 793.82,557.60 731.50,575.00 C712.39,580.33 703.27,581.51 681.50,581.43 C646.56,581.32 622.05,575.43 592.26,560.00 C544.41,535.22 506.23,487.80 493.63,437.50 C488.42,416.72 487.59,409.79 487.60,387.00 C487.60,363.96 488.67,354.86 493.57,336.22 C497.49,321.31 501.58,310.74 509.05,296.24 C534.88,246.08 581.53,208.81 634.48,196.00 C660.01,189.83 693.59,189.29 719.00,194.63 C739.57,198.95 760.39,207.49 778.94,219.19 L 783.38 221.99 L 785.81 219.75 C787.77,217.94 811.78,189.88 819.30,180.61 C820.28,179.40 820.83,177.75 820.51,176.95 C819.72,175.01 800.14,162.98 786.50,156.07 C750.84,137.99 705.48,129.07 664.00,131.97 C596.66,136.69 535.69,166.65 492.08,216.47 C474.80,236.21 465.42,249.92 454.80,271.00 C436.21,307.88 428.00,343.15 428.00,386.13 C428.00,420.32 433.56,450.87 444.98,479.50 C451.18,495.04 459.92,511.78 468.16,523.94 C472.75,530.70 476.95,536.96 477.50,537.85 C480.01,541.89 491.22,555.27 498.49,562.90 C513.45,578.60 531.64,593.07 551.39,604.97 C566.09,613.84 569.96,615.78 585.08,621.85 C608.54,631.26 633.63,637.66 656.08,639.97 C671.40,641.54 706.03,640.54 719.50,638.13 ZM 661.84 512.75 C665.63,508.76 673.02,500.55 678.26,494.50 C683.49,488.45 693.48,476.98 700.45,469.00 C724.72,441.23 735.04,429.29 763.18,396.45 C778.76,378.27 799.60,354.01 809.50,342.53 C819.40,331.06 829.83,318.93 832.67,315.59 C835.52,312.24 841.14,305.62 845.17,300.88 C849.20,296.15 859.99,283.55 869.14,272.88 C878.30,262.22 899.79,237.07 916.91,217.00 C934.02,196.93 950.72,177.44 954.01,173.70 C957.30,169.96 960.00,166.52 960.00,166.06 C960.00,165.59 958.31,163.74 956.25,161.95 C954.19,160.16 942.89,149.88 931.14,139.10 C919.39,128.32 909.21,119.37 908.51,119.20 C907.28,118.91 903.70,122.91 876.50,155.00 C869.35,163.43 859.90,174.45 855.50,179.49 C851.10,184.52 843.90,192.83 839.50,197.95 C835.10,203.07 823.40,216.58 813.50,227.97 C803.60,239.36 791.00,254.00 785.50,260.50 C774.19,273.87 752.55,298.88 737.49,316.00 C731.93,322.33 717.56,338.98 705.56,353.00 C693.57,367.02 682.60,379.85 681.18,381.50 C672.76,391.32 659.11,405.35 656.80,406.57 C655.31,407.36 652.40,408.00 650.32,408.00 C645.90,408.00 645.59,407.69 599.00,358.25 C583.33,341.62 570.16,328.01 569.75,328.00 C569.33,328.00 558.81,338.01 546.35,350.25 C519.40,376.73 520.00,376.11 520.00,377.37 C520.00,377.92 523.72,382.22 528.26,386.93 C536.93,395.92 555.57,415.96 565.53,427.00 C580.66,443.78 653.19,520.00 654.02,520.00 C654.53,520.00 658.06,516.74 661.84,512.75 Z" fill="rgb(254,254,254)"/>
</g>
</svg>