<svg xmlns="http://www.w3.org/2000/svg" width="1387" height="756" viewBox="0 0 1387 756">
<g>
<path d="M 659.08 514.94 C656.95,516.62 654.57,518.00 653.78,518.00 C652.20,518.00 637.00,502.82 637.00,501.24 C637.00,500.70 631.99,495.13 625.87,488.87 C619.76,482.62 612.21,474.58 609.10,471.00 C606.00,467.42 599.98,460.96 595.73,456.63 C591.48,452.30 588.00,448.35 588.00,447.85 C588.00,446.25 591.05,445.70 593.55,446.84 C595.28,447.63 598.07,447.65 603.24,446.93 C607.23,446.37 612.53,445.65 615.00,445.33 C617.47,445.01 620.17,444.18 621.00,443.49 C621.83,442.80 624.41,441.27 626.75,440.10 C629.09,438.92 631.00,437.57 631.00,437.09 C631.00,436.61 632.16,435.93 633.57,435.57 C637.05,434.70 657.21,414.17 659.87,408.80 C661.03,406.43 664.35,401.64 667.24,398.14 C678.81,384.15 721.45,334.22 732.63,321.57 C745.77,306.71 775.40,272.50 785.50,260.51 C797.15,246.69 815.20,225.89 825.38,214.57 C829.29,210.21 833.40,205.45 834.50,203.99 C836.50,201.34 838.99,198.43 855.00,180.11 C859.67,174.77 869.96,162.76 877.86,153.44 C904.29,122.26 907.16,119.00 908.22,119.00 C908.79,119.00 914.00,123.39 919.79,128.75 C925.57,134.11 936.64,144.24 944.37,151.26 C952.10,158.28 958.80,164.68 959.26,165.50 C959.85,166.56 958.82,168.37 955.72,171.74 C953.31,174.36 947.55,181.01 942.92,186.53 C938.29,192.05 923.54,209.37 910.15,225.03 C882.25,257.67 870.85,271.00 848.68,296.97 C839.98,307.16 830.50,318.20 827.60,321.50 C821.31,328.68 814.60,336.47 766.53,392.50 C746.24,416.15 726.46,439.15 722.57,443.60 C718.68,448.06 711.63,456.16 706.90,461.60 C675.93,497.23 662.46,512.26 659.08,514.94 ZM 712.21 639.07 C671.52,644.51 627.84,638.83 587.74,622.89 C573.91,617.39 569.20,614.68 563.50,608.95 C559.38,604.82 558.76,603.76 560.00,602.95 C560.83,602.41 562.29,602.16 563.26,602.40 C564.30,602.65 565.46,602.01 566.08,600.85 C566.66,599.77 570.39,595.61 574.37,591.60 C578.35,587.60 582.49,582.91 583.59,581.19 C585.84,577.62 595.33,570.21 598.74,569.35 C599.98,569.04 602.47,569.04 604.25,569.35 C606.04,569.67 610.27,570.34 613.65,570.84 C617.03,571.35 620.28,572.06 620.87,572.42 C622.74,573.58 636.79,577.00 648.85,579.24 C658.57,581.05 664.14,581.41 682.50,581.39 C702.64,581.38 705.55,581.15 717.00,578.66 C764.07,568.46 803.50,544.13 832.52,507.41 C839.25,498.90 850.76,480.61 854.19,473.00 C855.30,470.52 857.22,466.47 858.44,463.99 C860.60,459.64 865.20,446.33 868.47,435.00 C873.40,417.92 874.95,382.30 871.66,361.64 C869.59,348.64 866.82,336.57 864.12,328.79 L 862.14 323.08 L 864.69 319.29 C866.10,317.21 870.03,312.35 873.43,308.50 C876.83,304.65 884.49,295.65 890.44,288.50 C896.39,281.35 901.80,275.37 902.47,275.21 C904.15,274.80 905.01,276.15 909.87,286.79 C925.38,320.77 933.91,361.60 932.67,396.00 C930.60,453.46 911.29,504.71 875.13,548.64 C834.01,598.62 776.64,630.46 712.21,639.07 Z" fill="rgb(11,184,245)"/>
<path d="M 620.30 572.19 C619.09,571.80 616.42,571.25 613.65,570.84 C610.27,570.34 606.04,569.67 604.25,569.35 C602.47,569.04 599.98,569.04 598.74,569.35 C595.33,570.21 585.84,577.62 583.59,581.19 C582.49,582.91 578.35,587.60 574.37,591.60 C570.39,595.61 566.66,599.77 566.08,600.85 C565.46,602.01 564.30,602.65 563.26,602.40 C562.29,602.16 560.83,602.41 560.00,602.95 C558.76,603.76 559.38,604.82 563.50,608.95 C568.92,614.40 573.44,617.11 585.76,622.09 C580.66,620.07 576.27,618.20 574.00,617.02 C572.08,616.03 567.12,613.52 563.00,611.44 C536.44,598.07 506.58,573.92 486.29,549.41 L 482.08 544.32 L 486.79 546.63 C492.76,549.55 492.91,549.55 497.52,546.25 C500.93,543.81 521.46,523.75 524.79,519.60 C525.50,518.72 526.96,518.00 528.04,518.00 C530.89,518.00 530.51,516.21 525.59,506.34 C522.22,499.60 521.81,498.32 523.84,500.95 C535.74,516.34 555.08,536.41 563.26,541.84 C564.64,542.76 569.03,545.86 573.04,548.75 C584.11,556.73 604.11,566.53 620.30,572.19 ZM 659.08 514.94 C661.89,512.71 671.71,501.92 692.79,477.79 C679.26,493.28 665.98,508.37 661.59,513.23 C658.24,516.94 654.97,519.98 654.33,519.98 C653.68,519.99 637.77,503.69 618.96,483.75 C600.16,463.81 581.56,444.13 577.64,440.01 C573.71,435.89 571.85,433.70 573.50,435.14 C577.48,438.61 579.33,439.48 586.83,441.39 C594.22,443.27 605.68,443.48 613.19,441.87 C622.37,439.90 632.36,433.50 644.20,422.00 C650.15,416.23 655.01,410.94 655.01,410.25 C655.00,409.50 653.51,408.95 651.25,408.87 C647.81,408.74 647.91,408.68 652.45,408.05 C657.06,407.41 657.94,406.78 665.26,398.93 C672.07,391.63 689.44,371.69 717.84,338.57 C722.05,333.66 728.71,326.01 732.63,321.57 C721.45,334.22 678.81,384.15 667.24,398.14 C664.35,401.64 661.03,406.43 659.87,408.80 C657.21,414.17 637.05,434.70 633.57,435.57 C632.16,435.93 631.00,436.61 631.00,437.09 C631.00,437.57 629.09,438.92 626.75,440.10 C624.41,441.27 621.83,442.80 621.00,443.49 C620.17,444.18 617.47,445.01 615.00,445.33 C612.53,445.65 607.23,446.37 603.24,446.93 C598.07,447.65 595.28,447.63 593.55,446.84 C591.05,445.70 588.00,446.25 588.00,447.85 C588.00,448.35 591.48,452.30 595.73,456.63 C599.98,460.96 606.00,467.42 609.10,471.00 C612.21,474.58 619.76,482.62 625.87,488.87 C631.99,495.13 637.00,500.70 637.00,501.24 C637.00,502.82 652.20,518.00 653.78,518.00 C654.57,518.00 656.95,516.62 659.08,514.94 ZM 596.15 626.06 C611.68,631.62 627.66,635.66 643.73,638.14 C630.74,636.27 618.21,633.48 607.00,629.85 C603.80,628.81 600.02,627.49 596.15,626.06 ZM 652.13 579.82 C660.82,581.02 669.76,581.40 682.50,581.39 C666.30,581.40 660.05,581.13 652.13,579.82 ZM 628.67 574.84 C624.62,573.80 621.66,572.91 620.87,572.42 C620.81,572.38 620.72,572.34 620.61,572.30 C623.44,573.28 626.15,574.14 628.67,574.84 ZM 706.90 461.60 C703.92,465.03 700.78,468.64 697.60,472.29 C700.51,468.95 703.60,465.39 706.90,461.60 C711.63,456.16 718.68,448.06 722.57,443.60 C718.68,448.06 711.63,456.16 706.90,461.60 Z" fill="rgb(132,167,148)"/>
<path d="M 540.23 520.13 C534.37,513.80 528.52,507.01 523.84,500.95 C521.81,498.32 522.22,499.60 525.59,506.34 C530.51,516.21 530.89,518.00 528.04,518.00 C526.96,518.00 525.50,518.72 524.79,519.60 C521.46,523.75 500.93,543.81 497.52,546.25 C492.91,549.55 492.76,549.55 486.79,546.63 L 482.44 544.50 C482.15,544.06 482.00,543.76 482.00,543.62 C482.00,543.26 479.80,540.15 477.11,536.73 C452.67,505.59 436.02,464.72 429.99,421.06 C427.27,401.32 427.25,369.84 429.96,351.50 C435.89,311.40 446.28,282.48 466.25,250.50 C504.57,189.15 566.67,147.40 638.00,135.04 C686.04,126.71 736.38,133.04 780.50,152.95 C792.79,158.50 819.47,174.51 820.49,176.95 C821.12,178.48 820.78,178.97 812.00,189.23 C808.97,192.77 802.17,200.80 796.87,207.08 C788.71,216.75 786.05,220.53 783.13,220.74 C781.43,220.87 779.64,219.77 776.61,217.93 C775.82,217.45 774.95,216.91 773.97,216.33 C743.45,198.35 716.05,191.00 679.58,191.00 C647.62,191.00 620.75,197.30 594.00,211.06 C556.81,230.19 526.32,261.32 507.39,299.50 C490.47,333.60 483.82,372.89 488.53,410.93 C492.17,440.32 503.53,471.35 518.83,493.67 C524.36,501.73 532.30,511.43 540.23,520.13 ZM 652.77 408.00 C652.67,408.02 652.56,408.03 652.45,408.05 C647.91,408.68 647.81,408.74 651.25,408.87 C653.51,408.95 655.00,409.50 655.01,410.25 C655.01,410.94 650.15,416.23 644.20,422.00 C632.36,433.50 622.37,439.90 613.19,441.87 C605.68,443.48 594.22,443.27 586.83,441.39 C579.33,439.48 577.48,438.61 573.50,435.14 C572.12,433.94 573.19,435.27 575.88,438.14 C572.47,434.54 568.41,430.17 565.97,427.48 C554.18,414.50 536.13,395.09 528.26,386.93 C523.72,382.22 520.00,377.90 520.00,377.33 C520.00,376.03 520.05,375.97 546.81,349.75 C559.02,337.79 569.34,328.00 569.76,328.00 C570.18,328.00 582.88,341.16 598.00,357.25 C613.12,373.34 630.22,391.34 636.01,397.25 L 646.54 408.00 L 651.52 408.01 C651.97,408.01 652.39,408.01 652.77,408.00 ZM 503.28 567.73 C515.34,579.48 528.96,590.48 542.55,599.48 C528.75,590.36 514.89,579.21 503.28,567.73 ZM 673.33 389.98 C669.83,393.93 667.14,396.92 665.26,398.93 C661.90,402.53 659.90,404.62 658.27,405.88 C659.76,404.59 661.72,402.54 664.85,399.26 C667.03,396.97 669.72,394.03 673.33,389.98 Z" fill="rgb(248,140,7)"/>
<path d="M 0.00 378.00 L 0.00 0.00 L 693.50 0.00 L 1387.00 0.00 L 1387.00 378.00 L 1387.00 756.00 L 693.50 756.00 L 0.00 756.00 L 0.00 378.00 ZM 712.21 639.07 C776.64,630.46 834.01,598.62 875.13,548.64 C911.29,504.71 930.60,453.46 932.67,396.00 C933.91,361.60 925.38,320.77 909.87,286.79 C905.01,276.15 904.15,274.80 902.47,275.21 C901.80,275.37 896.39,281.35 890.44,288.50 C884.49,295.65 876.83,304.65 873.43,308.50 C870.03,312.35 866.10,317.21 864.69,319.29 L 862.14 323.08 L 864.12 328.79 C866.82,336.57 869.59,348.64 871.66,361.64 C874.95,382.30 873.40,417.92 868.47,435.00 C865.20,446.33 860.60,459.64 858.44,463.99 C857.22,466.47 855.30,470.52 854.19,473.00 C850.76,480.61 839.25,498.90 832.52,507.41 C803.50,544.13 764.07,568.46 717.00,578.66 C705.55,581.15 702.64,581.38 682.50,581.39 C659.54,581.41 648.91,580.15 629.85,575.15 C612.89,570.71 586.42,558.41 573.04,548.75 C569.03,545.86 564.64,542.76 563.26,541.84 C552.87,534.94 530.50,510.68 518.83,493.67 C503.53,471.35 492.17,440.32 488.53,410.93 C483.82,372.89 490.47,333.60 507.39,299.50 C526.32,261.32 556.81,230.19 594.00,211.06 C620.75,197.30 647.62,191.00 679.58,191.00 C716.05,191.00 743.45,198.35 773.97,216.33 C785.12,222.90 782.70,223.88 796.87,207.08 C802.17,200.80 808.97,192.77 812.00,189.23 C820.78,178.97 821.12,178.48 820.49,176.95 C819.47,174.51 792.79,158.50 780.50,152.95 C736.38,133.04 686.04,126.71 638.00,135.04 C566.67,147.40 504.57,189.15 466.25,250.50 C446.28,282.48 435.89,311.40 429.96,351.50 C427.25,369.84 427.27,401.32 429.99,421.06 C436.02,464.72 452.67,505.59 477.11,536.73 C479.80,540.15 482.00,543.26 482.00,543.62 C482.00,544.66 490.66,554.71 499.46,563.86 C517.33,582.46 541.75,600.74 563.00,611.44 C567.12,613.52 572.08,616.03 574.00,617.02 C579.35,619.79 596.40,626.41 607.00,629.85 C638.00,639.89 679.11,643.50 712.21,639.07 ZM 661.59 513.23 C667.55,506.64 689.80,481.28 706.90,461.60 C711.63,456.16 718.68,448.06 722.57,443.60 C726.46,439.15 746.24,416.15 766.53,392.50 C814.60,336.47 821.31,328.68 827.60,321.50 C830.50,318.20 839.98,307.16 848.68,296.97 C870.85,271.00 882.25,257.67 910.15,225.03 C923.54,209.37 938.29,192.05 942.92,186.53 C947.55,181.01 953.31,174.36 955.72,171.74 C958.82,168.37 959.85,166.56 959.26,165.50 C958.80,164.68 952.10,158.28 944.37,151.26 C936.64,144.24 925.57,134.11 919.79,128.75 C914.00,123.39 908.79,119.00 908.22,119.00 C907.16,119.00 904.29,122.26 877.86,153.44 C869.96,162.76 859.67,174.77 855.00,180.11 C838.99,198.43 836.50,201.34 834.50,203.99 C833.40,205.45 829.29,210.21 825.38,214.57 C815.20,225.89 797.15,246.69 785.50,260.51 C775.40,272.50 745.77,306.71 732.63,321.57 C728.71,326.01 722.05,333.66 717.84,338.57 C684.94,376.94 672.07,391.67 664.85,399.26 C656.53,407.99 656.48,408.02 651.52,408.01 L 646.54 408.00 L 636.01 397.25 C630.22,391.34 613.12,373.34 598.00,357.25 C582.88,341.16 570.18,328.00 569.76,328.00 C569.34,328.00 559.02,337.79 546.81,349.75 C520.05,375.97 520.00,376.03 520.00,377.33 C520.00,377.90 523.72,382.22 528.26,386.93 C536.13,395.09 554.18,414.50 565.97,427.48 C568.98,430.79 574.44,436.65 578.11,440.50 C581.77,444.35 600.16,463.81 618.96,483.75 C637.77,503.69 653.68,519.99 654.33,519.98 C654.97,519.98 658.24,516.94 661.59,513.23 Z" fill="rgb(254,254,254)"/>
</g>
</svg>